<svg id="Layer_1" data-name="Layer 1" xmlns="http://www.w3.org/2000/svg" xmlns:xlink="http://www.w3.org/1999/xlink" viewBox="0 0 22.1 28.1"><defs><style>.cls-1{fill:url(#Degradado_sin_nombre_4);}</style><linearGradient id="Degradado_sin_nombre_4" x1="15.1" y1="28.54" x2="15.1" y2="0.56" gradientTransform="translate(-2.32 0.84) rotate(1.31)" gradientUnits="userSpaceOnUse"><stop offset="0" stop-color="#ffed00"/><stop offset="0.43" stop-color="#ff3a00"/><stop offset="1" stop-color="#610000"/></linearGradient></defs><title>bogote logo</title><path class="cls-1" d="M23.39,18.66a13.67,13.67,0,0,0-3.92-10.1c-.12,5.1-2.5,6.7-2.5,6.7s1.7-4.46-3-9.81A11.13,11.13,0,0,0,2.67,2s3.24.07,4.75,5A8.15,8.15,0,0,1,5.61,15c-1.54-3.28-3.17-3.31-3.17-3.31C4,16.59,1.37,18.15,1.3,21.4c-.1,4.55,4.38,7.78,8.94,8.28-2.19-1.49-3.54-5.74,2.13-13.29,0,0-.16,7,1.23,7A1.36,1.36,0,0,0,15,22s2.45,5.19.15,7.35A11,11,0,0,0,23.39,18.66Z" transform="translate(-1.3 -1.58)"/></svg>